<?xml version="1.0" encoding="UTF-8"?>
<svg id="Layer_1" data-name="Layer 1" xmlns="http://www.w3.org/2000/svg" viewBox="0 0 451.62 53.28">
  <defs>
    <style>
      .cls-1 {
        fill: #fff;
      }

      .cls-2 {
        fill: #1e50f1;
      }
    </style>
  </defs>
  <path class="cls-1" d="m0,52.56L14.11,0h6.19l14.11,52.56h-4.82l-3.82-14.69H8.57l-3.74,14.69H0Zm9.65-18.79h15.05l-5.04-19.22c-.72-2.78-1.28-5.11-1.69-6.98-.41-1.87-.66-3.1-.76-3.67-.1.58-.36,1.8-.79,3.67s-1.01,4.2-1.73,6.98l-5.04,19.22Z"/>
  <path class="cls-1" d="m56.4,53.28c-2.78,0-5.15-.64-7.09-1.91-1.94-1.27-3.23-3.04-3.85-5.29v6.48h-4.75V0h4.75v11.09l-.07,8.35c.67-2.21,1.98-3.96,3.92-5.26s4.31-1.94,7.09-1.94c3.94,0,7.09,1.32,9.47,3.96,2.38,2.64,3.56,6.17,3.56,10.58v12.02c0,4.42-1.19,7.93-3.56,10.55-2.38,2.62-5.53,3.92-9.47,3.92Zm-1.3-4.1c2.98,0,5.32-.88,7.02-2.63,1.7-1.75,2.56-4.33,2.56-7.74v-12.02c0-3.41-.85-6-2.56-7.78-1.7-1.78-4.04-2.66-7.02-2.66s-5.45.94-7.13,2.81c-1.68,1.87-2.52,4.46-2.52,7.78v11.74c0,3.31.85,5.89,2.56,7.74,1.7,1.85,4.07,2.77,7.09,2.77Z"/>
  <path class="cls-1" d="m90.05,53.28c-3.94,0-7.09-1.31-9.47-3.92-2.38-2.62-3.56-6.13-3.56-10.55v-12.02c0-4.42,1.19-7.94,3.56-10.58,2.38-2.64,5.53-3.96,9.47-3.96,2.78,0,5.15.65,7.09,1.94,1.94,1.3,3.25,3.05,3.92,5.26l-.07-8.35V0h4.75v52.56h-4.75v-6.48c-.62,2.26-1.91,4.02-3.85,5.29-1.94,1.27-4.31,1.91-7.09,1.91Zm1.3-4.1c3.02,0,5.39-.92,7.09-2.77,1.7-1.85,2.56-4.43,2.56-7.74v-11.74c0-3.31-.84-5.9-2.52-7.78-1.68-1.87-4.06-2.81-7.13-2.81s-5.32.89-7.02,2.66c-1.7,1.78-2.56,4.37-2.56,7.78v12.02c0,3.41.85,5.99,2.56,7.74,1.7,1.75,4.04,2.63,7.02,2.63Z"/>
  <path class="cls-1" d="m130.17,53.28c-4.42,0-7.9-1.33-10.44-4-2.54-2.66-3.82-6.28-3.82-10.84V12.96h4.75v25.49c0,3.31.85,5.9,2.56,7.78,1.7,1.87,4.02,2.81,6.95,2.81s5.33-.94,7.06-2.81,2.59-4.46,2.59-7.78V12.96h4.75v25.49c0,4.56-1.3,8.17-3.89,10.84s-6.1,4-10.51,4Z"/>
  <path class="cls-1" d="m165.25,52.56c-3.36,0-5.98-.91-7.85-2.74-1.87-1.82-2.81-4.34-2.81-7.56V4.32h-13.25V0h18v42.26c0,1.92.52,3.4,1.55,4.43,1.03,1.03,2.48,1.55,4.36,1.55h12.24v4.32h-12.24Z"/>
  <path class="cls-1" d="m207.14,52.56V0h10.66l6.26,22.68,6.48-22.68h10.73v52.56h-7.34v-23.47c0-2.69.06-5.6.18-8.75.12-3.14.28-6.25.47-9.32.19-3.07.41-5.86.65-8.35l-7.92,26.78h-6.55l-7.63-26.14c.43,3.41.77,7.32,1.01,11.74.24,4.42.36,9.1.36,14.04v23.47h-7.34Z"/>
  <path class="cls-1" d="m261.5,53.28c-4.03,0-7.24-1.14-9.61-3.42-2.38-2.28-3.56-5.27-3.56-8.96s1.27-6.76,3.82-9.04c2.54-2.28,5.93-3.42,10.15-3.42h10.94v-2.88c0-4.56-2.57-6.84-7.7-6.84-2.3,0-4.15.43-5.54,1.3-1.39.86-2.14,2.06-2.23,3.6h-7.63c.24-3.31,1.73-6.04,4.46-8.17,2.74-2.14,6.41-3.2,11.02-3.2,4.9,0,8.69,1.16,11.38,3.49,2.69,2.33,4.03,5.58,4.03,9.76v27.07h-7.63v-7.42h-.07c-.34,2.54-1.54,4.54-3.6,5.98-2.06,1.44-4.8,2.16-8.21,2.16Zm2.23-6.41c2.93,0,5.24-.71,6.95-2.12,1.7-1.42,2.56-3.32,2.56-5.72v-5.11h-10.37c-2.06,0-3.71.6-4.93,1.8-1.22,1.2-1.84,2.74-1.84,4.61,0,2.02.67,3.61,2.02,4.79,1.34,1.18,3.22,1.76,5.62,1.76Z"/>
  <path class="cls-1" d="m307.68,52.56c-3.5,0-6.29-1.01-8.35-3.02-2.06-2.02-3.1-4.75-3.1-8.21v-21.31h-11.16v-7.06h11.16V1.8h7.78v11.16h15.98v7.06h-15.98v21.24c0,1.25.36,2.27,1.08,3.06.72.79,1.7,1.19,2.95,1.19h11.59v7.06h-11.95Z"/>
  <path class="cls-1" d="m341.97,53.28c-4.85,0-8.74-1.42-11.66-4.25-2.93-2.83-4.39-6.7-4.39-11.59v-9.36c0-4.9,1.46-8.76,4.39-11.59,2.93-2.83,6.82-4.25,11.66-4.25,3.26,0,6.1.64,8.5,1.91,2.4,1.27,4.26,3.06,5.58,5.36,1.32,2.3,1.98,4.99,1.98,8.06v7.13h-24.62v3.24c0,2.78.77,4.94,2.3,6.48,1.54,1.54,3.62,2.3,6.26,2.3,2.16,0,3.96-.4,5.4-1.19s2.3-1.88,2.59-3.28h7.7c-.53,3.36-2.22,6.04-5.08,8.03-2.86,1.99-6.4,2.99-10.62,2.99Zm-8.57-25.7v1.66h17.14v-1.73c0-2.93-.74-5.18-2.23-6.77-1.49-1.58-3.6-2.38-6.34-2.38s-4.85.8-6.34,2.41c-1.49,1.61-2.23,3.88-2.23,6.8Z"/>
  <path class="cls-1" d="m380.23,53.28c-4.85,0-8.74-1.42-11.66-4.25-2.93-2.83-4.39-6.7-4.39-11.59v-9.36c0-4.9,1.46-8.76,4.39-11.59,2.93-2.83,6.82-4.25,11.66-4.25,3.26,0,6.1.64,8.5,1.91,2.4,1.27,4.26,3.06,5.58,5.36,1.32,2.3,1.98,4.99,1.98,8.06v7.13h-24.62v3.24c0,2.78.77,4.94,2.3,6.48,1.54,1.54,3.62,2.3,6.26,2.3,2.16,0,3.96-.4,5.4-1.19s2.3-1.88,2.59-3.28h7.7c-.53,3.36-2.22,6.04-5.08,8.03-2.86,1.99-6.4,2.99-10.62,2.99Zm-8.57-25.7v1.66h17.14v-1.73c0-2.93-.74-5.18-2.23-6.77-1.49-1.58-3.6-2.38-6.34-2.38s-4.85.8-6.34,2.41c-1.49,1.61-2.23,3.88-2.23,6.8Z"/>
  <path class="cls-1" d="m401.93,52.56V12.96h7.7v7.56c.38-2.59,1.5-4.62,3.35-6.08,1.85-1.46,4.26-2.2,7.24-2.2,3.94,0,7.08,1.26,9.43,3.78,2.35,2.52,3.53,5.92,3.53,10.19v26.35h-7.78v-25.2c0-2.74-.7-4.83-2.09-6.3-1.39-1.46-3.29-2.2-5.69-2.2s-4.38.77-5.8,2.3c-1.42,1.54-2.12,3.67-2.12,6.41v24.98h-7.78Z"/>
  <rect class="cls-2" x="441.62" y="42.16" width="10" height="10"/>
</svg>